<svg xmlns="http://www.w3.org/2000/svg" width="800" height="260" viewBox="0 0 800 260">
  <rect width="800" height="260" fill="#f8f9fa"/>
  <text x="400" y="35" text-anchor="middle" font-size="22" font-weight="bold" fill="#1565c0">需求工程活动</text>
  
  <defs>
    <marker id="ar2" markerWidth="10" markerHeight="10" refX="9" refY="3" orient="auto" markerUnits="strokeWidth">
      <path d="M0,0 L0,6 L9,3 z" fill="#1565c0"/>
    </marker>
  </defs>
  
  <rect x="50" y="90" width="120" height="50" rx="6" fill="#e8f5e9" stroke="#2e7d32" stroke-width="1.5"/>
  <text x="110" y="120" text-anchor="middle" font-size="14" fill="#333">获取需求</text>
  <line x1="170" y1="115" x2="200" y2="115" stroke="#1565c0" stroke-width="2" marker-end="url(#ar2)"/>
  
  <rect x="200" y="90" width="120" height="50" rx="6" fill="#e8f5e9" stroke="#2e7d32" stroke-width="1.5"/>
  <text x="260" y="120" text-anchor="middle" font-size="14" fill="#333">分析需求</text>
  <line x1="320" y1="115" x2="350" y2="115" stroke="#1565c0" stroke-width="2" marker-end="url(#ar2)"/>
  
  <rect x="350" y="90" width="120" height="50" rx="6" fill="#e8f5e9" stroke="#2e7d32" stroke-width="1.5"/>
  <text x="410" y="120" text-anchor="middle" font-size="14" fill="#333">文档化需求</text>
  <line x1="470" y1="115" x2="500" y2="115" stroke="#1565c0" stroke-width="2" marker-end="url(#ar2)"/>
  
  <rect x="500" y="90" width="120" height="50" rx="6" fill="#e8f5e9" stroke="#2e7d32" stroke-width="1.5"/>
  <text x="560" y="120" text-anchor="middle" font-size="14" fill="#333">确认验证</text>
  <line x1="620" y1="115" x2="650" y2="115" stroke="#1565c0" stroke-width="2" marker-end="url(#ar2)"/>
  
  <rect x="650" y="90" width="120" height="50" rx="6" fill="#fff3e0" stroke="#ef6c00" stroke-width="1.5"/>
  <text x="710" y="120" text-anchor="middle" font-size="14" fill="#333">需求管理</text>
  
  <path d="M710,140 Q710,190 400,190 Q90,190 110,140" fill="none" stroke="#999" stroke-width="1.5" stroke-dasharray="5,3" marker-end="url(#ar2)"/>
  <text x="400" y="215" text-anchor="middle" font-size="13" fill="#666">需求变更时循环迭代</text>
</svg>